# xmcd
#
# Track frame offsets: 
#        150
#        21257
#        40234
#        57950
#        72108
#        90321
#        109937
#        126790
#        139428
#        153947
#
# Disc length: 2314 seconds
#
# Revision: 3
# Processed by: cddbd v1.5.2PL0 Copyright (c) Steve Scherf et al.
# Submitted via: ExactAudioCopyFreeDBPlugin 1.0
#
DISCID=8409080a
DTITLE=陳慧琳 - GRACE AND CHARM
DYEAR=2004
DGENRE=POP
TTITLE0=紙醉金迷
TTITLE1=情人戰
TTITLE2=前世
TTITLE3=紅絲帶
TTITLE4=柴門文的女人
TTITLE5=完美關係
TTITLE6=幅射
TTITLE7=以退為進
TTITLE8=小女人
TTITLE9=完美關係
EXTD=
EXTT0=
EXTT1=
EXTT2=
EXTT3=
EXTT4=
EXTT5=
EXTT6=
EXTT7=
EXTT8=
EXTT9=
PLAYORDER=
